<?xml version="1.0" encoding="UTF-8" standalone="no"?>
<!DOCTYPE svg PUBLIC "-//W3C//DTD SVG 1.1//EN" "http://www.w3.org/Graphics/SVG/1.1/DTD/svg11.dtd">
<svg width="100%" height="100%" viewBox="0 0 32 32" version="1.1" xmlns="http://www.w3.org/2000/svg" xmlns:xlink="http://www.w3.org/1999/xlink" xml:space="preserve" xmlns:serif="http://www.serif.com/" style="fill-rule:evenodd;clip-rule:evenodd;stroke-linecap:round;stroke-linejoin:round;stroke-miterlimit:1.5;">
    <path d="M6.733,27.16C9.11,25.689 10.732,23.316 10.935,20.5C11.108,18.11 10.682,15.385 12.372,13.437C12.757,12.993 13.265,12.447 13.854,12.27C14.869,11.965 15.865,13.371 16.101,14.14C16.183,14.407 16.24,14.681 16.28,14.957C16.321,15.236 16.344,15.519 16.338,15.801C16.33,16.172 16.264,16.54 16.179,16.9C15.803,18.484 14.922,19.812 14.37,21.317C13.938,22.496 13.699,23.733 13.188,24.886C12.413,26.635 11.152,27.912 9.445,28.723" style="fill:none;stroke:rgb(77,130,238);stroke-width:1px;"/>
    <g transform="matrix(1,0,0,1,0,0.0165154)">
        <path d="M19.627,13.067C19.643,12.689 19.644,12.312 19.602,11.94C19.492,10.945 19.134,9.809 18.409,9.085C17.294,7.973 15.259,7.783 13.802,8.161C11.682,8.711 9.652,10.343 8.384,12.086C6.802,14.258 6.434,17.102 5.869,19.667C5.591,20.933 5.116,22.095 4.639,23.291C4.373,23.957 4.148,24.652 3.821,25.292" style="fill:none;stroke:rgb(77,130,238);stroke-width:1px;"/>
    </g>
    <g transform="matrix(1,0,0,1,0.0103617,1.93283)">
        <path d="M17.776,23.897C18.181,23.203 18.529,22.478 18.808,21.723C19.618,19.525 19.536,17.05 19.544,14.737C19.546,14.185 19.603,13.625 19.627,13.067" style="fill:none;stroke:rgb(77,130,238);stroke-width:1px;"/>
    </g>
    <g transform="matrix(1,0,0,1,0.0103617,1.93283)">
        <path d="M12.304,29.898C14.401,28.246 16.409,26.242 17.776,23.897" style="fill:none;stroke:rgb(77,130,238);stroke-width:1px;"/>
    </g>
    <g transform="matrix(1,0,0,1,-0.780687,1.31629)">
        <path d="M9.034,5.684C7.784,6.609 6.912,8.041 6.046,9.299C4.172,12.02 3.192,15.152 2.545,18.358C2.238,19.877 1.739,21.481 1.783,23.049C1.811,24.022 2.128,24.945 2.377,25.877" style="fill:none;stroke:rgb(77,130,238);stroke-width:1px;"/>
    </g>
    <g transform="matrix(1,0,0,1,0,-0.236086)">
        <path d="M11.077,4.769C10.568,4.874 10.072,5.052 9.601,5.316C9.403,5.426 9.215,5.55 9.034,5.684" style="fill:none;stroke:rgb(77,130,238);stroke-width:1px;"/>
    </g>
    <g transform="matrix(1,0,0,1,0,-0.236086)">
        <path d="M17.324,32.236C18.789,30.532 20.455,28.924 21.578,26.957C22.388,25.539 22.901,23.901 23.439,22.361C24.22,20.121 24.46,17.899 24.716,15.539C24.845,14.351 25.068,13.175 25.155,11.983C25.22,11.093 25.228,10.2 25.163,9.31C25.121,8.736 25.061,8.162 24.832,7.627C24.671,7.251 24.436,6.91 24.175,6.597C23.954,6.332 23.702,6.09 23.412,5.902C22.555,5.35 21.709,5.543 20.783,5.744C19.685,5.981 18.427,6.321 17.297,6.085C16.355,5.888 15.522,5.394 14.62,5.079C13.476,4.679 12.244,4.53 11.077,4.769" style="fill:none;stroke:rgb(77,130,238);stroke-width:1px;"/>
    </g>
    <path d="M25.819,32.343C28.239,29.369 29.273,25.898 29.456,22.098" style="fill:none;stroke:rgb(77,130,238);stroke-width:1px;"/>
    <path d="M29.587,15.451C29.447,13.906 29.515,12.232 29.172,10.708C28.9,9.504 28.311,8.345 27.88,7.19C27.206,5.38 26.646,3.789 24.882,2.742C24.395,2.454 23.871,2.229 23.339,2.039" style="fill:none;stroke:rgb(77,130,238);stroke-width:1px;"/>
    <path d="M16.263,1.192C13.932,1.088 11.317,0.7 9.033,1.399C5.351,2.524 2.462,5.828 0.824,9.167C0.398,10.036 -0.012,10.906 -0.279,11.84C-0.708,13.342 -0.853,14.899 -0.947,16.453" style="fill:none;stroke:rgb(77,130,238);stroke-width:1px;"/>
</svg>
